<?xml version="1.0" standalone="no"?>
<svg xmlns:xlink="http://www.w3.org/1999/xlink" id="wave" style="transform:rotate(180deg); transition: 0.3s" viewBox="0 0 1440 230" version="1.1" xmlns="http://www.w3.org/2000/svg"><defs><linearGradient id="sw-gradient-0" x1="0" x2="0" y1="1" y2="0"><stop stop-color="rgba(214.473, 207.644, 205.451, 1)" offset="0%"/><stop stop-color="rgba(234.964, 202.959, 132.209, 1)" offset="100%"/></linearGradient></defs><path style="transform:translate(0, 0px); opacity:1" fill="url(#sw-gradient-0)" d="M0,184L120,164.8C240,146,480,107,720,84.3C960,61,1200,54,1440,53.7C1680,54,1920,61,2160,53.7C2400,46,2640,23,2880,15.3C3120,8,3360,15,3600,19.2C3840,23,4080,23,4320,49.8C4560,77,4800,130,5040,145.7C5280,161,5520,138,5760,138C6000,138,6240,161,6480,153.3C6720,146,6960,107,7200,84.3C7440,61,7680,54,7920,65.2C8160,77,8400,107,8640,111.2C8880,115,9120,92,9360,76.7C9600,61,9840,54,10080,46C10320,38,10560,31,10800,57.5C11040,84,11280,146,11520,149.5C11760,153,12000,100,12240,95.8C12480,92,12720,138,12960,164.8C13200,192,13440,199,13680,199.3C13920,199,14160,192,14400,168.7C14640,146,14880,107,15120,95.8C15360,84,15600,100,15840,122.7C16080,146,16320,176,16560,168.7C16800,161,17040,115,17160,92L17280,69L17280,230L17160,230C17040,230,16800,230,16560,230C16320,230,16080,230,15840,230C15600,230,15360,230,15120,230C14880,230,14640,230,14400,230C14160,230,13920,230,13680,230C13440,230,13200,230,12960,230C12720,230,12480,230,12240,230C12000,230,11760,230,11520,230C11280,230,11040,230,10800,230C10560,230,10320,230,10080,230C9840,230,9600,230,9360,230C9120,230,8880,230,8640,230C8400,230,8160,230,7920,230C7680,230,7440,230,7200,230C6960,230,6720,230,6480,230C6240,230,6000,230,5760,230C5520,230,5280,230,5040,230C4800,230,4560,230,4320,230C4080,230,3840,230,3600,230C3360,230,3120,230,2880,230C2640,230,2400,230,2160,230C1920,230,1680,230,1440,230C1200,230,960,230,720,230C480,230,240,230,120,230L0,230Z"/></svg>