<?xml version="1.0" standalone="no"?>
<svg xmlns:xlink="http://www.w3.org/1999/xlink" id="wave" style="transform:rotate(180deg); transition: 0.3s" viewBox="0 0 1440 490" version="1.1" xmlns="http://www.w3.org/2000/svg"><defs><linearGradient id="sw-gradient-0" x1="0" x2="0" y1="1" y2="0"><stop stop-color="rgba(212.53, 225.857, 224.909, 1)" offset="0%"/><stop stop-color="rgba(248.625, 220.006, 156.742, 1)" offset="100%"/></linearGradient></defs><path style="transform:translate(0, 0px); opacity:1" fill="url(#sw-gradient-0)" d="M0,147L80,187.8C160,229,320,310,480,302.2C640,294,800,196,960,147C1120,98,1280,98,1440,81.7C1600,65,1760,33,1920,16.3C2080,0,2240,0,2400,49C2560,98,2720,196,2880,196C3040,196,3200,98,3360,89.8C3520,82,3680,163,3840,228.7C4000,294,4160,343,4320,310.3C4480,278,4640,163,4800,138.8C4960,114,5120,180,5280,179.7C5440,180,5600,114,5760,89.8C5920,65,6080,82,6240,138.8C6400,196,6560,294,6720,351.2C6880,408,7040,425,7200,359.3C7360,294,7520,147,7680,130.7C7840,114,8000,229,8160,277.7C8320,327,8480,310,8640,294C8800,278,8960,261,9120,253.2C9280,245,9440,245,9600,261.3C9760,278,9920,310,10080,302.2C10240,294,10400,245,10560,187.8C10720,131,10880,65,11040,81.7C11200,98,11360,196,11440,245L11520,294L11520,490L11440,490C11360,490,11200,490,11040,490C10880,490,10720,490,10560,490C10400,490,10240,490,10080,490C9920,490,9760,490,9600,490C9440,490,9280,490,9120,490C8960,490,8800,490,8640,490C8480,490,8320,490,8160,490C8000,490,7840,490,7680,490C7520,490,7360,490,7200,490C7040,490,6880,490,6720,490C6560,490,6400,490,6240,490C6080,490,5920,490,5760,490C5600,490,5440,490,5280,490C5120,490,4960,490,4800,490C4640,490,4480,490,4320,490C4160,490,4000,490,3840,490C3680,490,3520,490,3360,490C3200,490,3040,490,2880,490C2720,490,2560,490,2400,490C2240,490,2080,490,1920,490C1760,490,1600,490,1440,490C1280,490,1120,490,960,490C800,490,640,490,480,490C320,490,160,490,80,490L0,490Z"/></svg>