<?xml version="1.0" standalone="no"?>
<svg xmlns:xlink="http://www.w3.org/1999/xlink" id="wave" style="transform:rotate(180deg); transition: 0.3s" viewBox="0 0 1440 320" version="1.1" xmlns="http://www.w3.org/2000/svg"><defs><linearGradient id="sw-gradient-0" x1="0" x2="0" y1="1" y2="0"><stop stop-color="rgba(253.179, 238.625, 233.951, 1)" offset="0%"/><stop stop-color="rgba(239.518, 213.632, 156.41, 1)" offset="100%"/></linearGradient></defs><path style="transform:translate(0, 0px); opacity:1" fill="url(#sw-gradient-0)" d="M0,192L120,181.3C240,171,480,149,720,122.7C960,96,1200,64,1440,90.7C1680,117,1920,203,2160,218.7C2400,235,2640,181,2880,133.3C3120,85,3360,43,3600,48C3840,53,4080,107,4320,154.7C4560,203,4800,245,5040,256C5280,267,5520,245,5760,213.3C6000,181,6240,139,6480,133.3C6720,128,6960,160,7200,192C7440,224,7680,256,7920,224C8160,192,8400,96,8640,48C8880,0,9120,0,9360,32C9600,64,9840,128,10080,165.3C10320,203,10560,213,10800,213.3C11040,213,11280,203,11520,213.3C11760,224,12000,256,12240,272C12480,288,12720,288,12960,266.7C13200,245,13440,203,13680,186.7C13920,171,14160,181,14400,176C14640,171,14880,149,15120,117.3C15360,85,15600,43,15840,42.7C16080,43,16320,85,16560,106.7C16800,128,17040,128,17160,128L17280,128L17280,320L17160,320C17040,320,16800,320,16560,320C16320,320,16080,320,15840,320C15600,320,15360,320,15120,320C14880,320,14640,320,14400,320C14160,320,13920,320,13680,320C13440,320,13200,320,12960,320C12720,320,12480,320,12240,320C12000,320,11760,320,11520,320C11280,320,11040,320,10800,320C10560,320,10320,320,10080,320C9840,320,9600,320,9360,320C9120,320,8880,320,8640,320C8400,320,8160,320,7920,320C7680,320,7440,320,7200,320C6960,320,6720,320,6480,320C6240,320,6000,320,5760,320C5520,320,5280,320,5040,320C4800,320,4560,320,4320,320C4080,320,3840,320,3600,320C3360,320,3120,320,2880,320C2640,320,2400,320,2160,320C1920,320,1680,320,1440,320C1200,320,960,320,720,320C480,320,240,320,120,320L0,320Z"/></svg>